<?xml version="1.0" standalone="no"?>
<!DOCTYPE svg PUBLIC "-//W3C//DTD SVG 20010904//EN"
 "http://www.w3.org/TR/2001/REC-SVG-20010904/DTD/svg10.dtd">
<svg version="1.0" xmlns="http://www.w3.org/2000/svg"
 width="50.000000pt" height="50.000000pt" viewBox="0 0 700.000000 700.000000"
 preserveAspectRatio="xMidYMid meet">

<g transform="translate(0.000000,700.000000) scale(0.100000,-0.100000)"
fill="#000000" stroke="none">
<path d="M3465 6956 c-27 -7 -66 -20 -85 -30 -19 -10 -707 -689 -1528 -1509
-1104 -1103 -1500 -1504 -1518 -1539 -56 -109 -68 -230 -32 -325 41 -112 187
-225 306 -240 l52 -6 1 -671 c1 -369 4 -1031 8 -1471 6 -738 8 -803 24 -840
45 -101 109 -160 214 -196 55 -19 108 -19 2613 -19 2505 0 2558 0 2613 19 113
39 190 117 222 223 12 40 15 286 21 1502 l7 1454 50 6 c118 14 264 128 305
239 37 98 25 213 -33 327 -32 61 -2992 3019 -3050 3048 -22 11 -56 23 -75 27
-19 3 -42 8 -50 10 -8 2 -37 -2 -65 -9z m-368 -3680 c192 -62 349 -217 417
-411 6 -16 11 -10 26 32 41 116 127 222 243 302 159 109 355 136 543 76 169
-54 286 -142 363 -273 76 -129 86 -173 86 -382 0 -163 -3 -196 -24 -275 -32
-122 -66 -195 -153 -322 -82 -121 -267 -318 -393 -420 -141 -113 -664 -473
-687 -473 -15 1 -424 280 -598 408 -161 119 -385 346 -479 485 -86 128 -120
200 -152 322 -21 79 -24 113 -24 275 0 170 2 190 24 250 55 152 148 269 264
334 192 108 362 130 544 72z"/>
</g>
</svg>
