<?xml version="1.0" standalone="no"?>
<!DOCTYPE svg PUBLIC "-//W3C//DTD SVG 20010904//EN"
 "http://www.w3.org/TR/2001/REC-SVG-20010904/DTD/svg10.dtd">
<svg version="1.0" xmlns="http://www.w3.org/2000/svg"
 width="50.000000pt" height="50.000000pt" viewBox="0 0 700.000000 700.000000"
 preserveAspectRatio="xMidYMid meet">

<g transform="translate(0.000000,700.000000) scale(0.100000,-0.100000)"
fill="#000000" stroke="none">
<path d="M3315 6653 c-1370 -90 -2530 -1072 -2845 -2408 -59 -249 -80 -441
-80 -717 0 -494 97 -924 304 -1353 167 -347 341 -592 610 -860 173 -173 294
-272 487 -401 677 -449 1529 -620 2320 -464 1222 242 2170 1151 2458 2360 62
259 75 384 75 715 0 262 -3 318 -23 445 -40 260 -97 474 -188 705 -370 939
-1171 1644 -2148 1889 -307 77 -662 109 -970 89z m502 -658 c677 -86 1283
-436 1693 -978 131 -173 273 -440 350 -655 165 -464 188 -973 66 -1454 -85
-337 -258 -679 -481 -953 -93 -114 -254 -274 -370 -366 -88 -71 -260 -189
-275 -189 -4 0 -39 60 -78 132 -656 1232 -703 1323 -686 1333 248 150 393 304
500 530 66 140 95 261 101 428 4 87 1 166 -7 215 -69 431 -363 779 -768 911
-121 40 -218 55 -352 55 -316 0 -585 -114 -810 -344 -145 -147 -236 -309 -291
-517 -26 -96 -37 -333 -20 -439 49 -316 235 -609 491 -774 41 -27 83 -55 93
-62 16 -12 -14 -71 -363 -728 -209 -393 -384 -718 -389 -723 -10 -10 -164 91
-256 167 -443 366 -736 829 -865 1371 -49 202 -64 337 -64 570 0 233 15 367
64 570 145 610 504 1134 1020 1487 298 204 684 355 1030 402 63 9 126 17 140
20 71 10 420 5 527 -9z"/>
</g>
</svg>
