<?xml version="1.0" standalone="no"?>
<!DOCTYPE svg PUBLIC "-//W3C//DTD SVG 20010904//EN"
 "http://www.w3.org/TR/2001/REC-SVG-20010904/DTD/svg10.dtd">
<svg version="1" xmlns="http://www.w3.org/2000/svg"
 width="260pt" height="255pt" viewBox="0 0 260 255"
 preserveAspectRatio="xMidYMid meet">

<g transform="matrix(0.1,0,0,-0.1,0,255)"
fill="#e23434" stroke="none">
<path d="M 1150 2421 c -420 -51 -781 -331 -939 -727 c -52 -131 -71 -222 -78 -379 c -22 -520 305 -983 809 -1144 c 140 -44 220 -54 393 -48 c 136 4 161 8 268 41 c 137 42 208 76 327 154 c 421 279 608 814 455 1302 c -126 400 -460 698 -880 785 c -89 18 -269 26 -355 16 z m 285 -696 c -55 -94 -41 -212 50 -405 c 81 -174 89 -275 30 -376 c -44 -75 -152 -134 -244 -134 c -167 2 -279 141 -269 334 c 6 118 73 238 238 425 c 63 72 202 201 216 201 c 3 0 -7 -20 -21 -45 z"/>
</g>
</svg>
