<?xml version="1.0" standalone="no"?>
<!DOCTYPE svg PUBLIC "-//W3C//DTD SVG 20010904//EN"
 "http://www.w3.org/TR/2001/REC-SVG-20010904/DTD/svg10.dtd">
<svg version="1.0" xmlns="http://www.w3.org/2000/svg"
 width="260.000000pt" height="255.000000pt" viewBox="0 0 260.000000 255.000000"
 preserveAspectRatio="xMidYMid meet">

<g transform="translate(0.000000,255.000000) scale(0.100000,-0.100000)"
fill="#E23434" stroke="none">
<path d="M1150 2421 c-420 -51 -781 -331 -939 -727 -52 -131 -71 -222 -78
-379 -22 -520 305 -983 809 -1144 140 -44 220 -54 393 -48 136 4 161 8 268 41
137 42 208 76 327 154 421 279 608 814 455 1302 -126 400 -460 698 -880 785
-89 18 -269 26 -355 16z m285 -696 c-55 -94 -41 -212 50 -405 81 -174 89 -275
30 -376 -44 -75 -152 -134 -244 -134 -167 2 -279 141 -269 334 6 118 73 238
238 425 63 72 202 201 216 201 3 0 -7 -20 -21 -45z"/>
</g>
</svg>
