<svg xmlns="http://www.w3.org/2000/svg" width="3543" height="3543" viewBox="0 0 3543 3543">
  <defs>
    <style>
      .cls-1, .cls-2 {
        fill: #8c8c8c;
      }

      .cls-1 {
        fill-rule: evenodd;
      }

      .cls-3 {
        fill: none;
        stroke: #8c8c8c;
        stroke-width: 130px;
      }
    </style>
  </defs>
  <path id="모양_1" data-name="모양 1" class="cls-1" d="M1860.42,264c199.33,0,360.92,161.569,360.92,360.875S2059.75,985.75,1860.42,985.75,1499.5,824.181,1499.5,624.875,1661.09,264,1860.42,264ZM1136.3,2061c-27.59-373.01,74.23-792.29,377.94-983.93,107.42-67.78,230.69-107.055,350.61-106.054,125.73,1.05,255.69,46.514,374.17,129.624,285.92,200.57,384.46,594.96,353.55,960.36H1136.3"/>
  <path id="line_복사_2" data-name="line 복사 2" class="cls-1" d="M228,2233H3317v144H228V2233Zm0,225H3317v144H228V2458Zm0,220H3317v144H228V2678Zm0,225H3317v144H228V2903Z"/>
  <rect id="사각형_2" data-name="사각형 2" class="cls-2" x="222" y="3137" width="1648" height="152"/>
  <rect id="사각형_1" data-name="사각형 1" class="cls-3" width="3543" height="3543"/>
</svg>
