<?xml version="1.0" standalone="no"?>
<!DOCTYPE svg PUBLIC "-//W3C//DTD SVG 20010904//EN"
 "http://www.w3.org/TR/2001/REC-SVG-20010904/DTD/svg10.dtd">
<svg version="1.0" xmlns="http://www.w3.org/2000/svg"
 width="50.000000pt" height="50.000000pt" viewBox="0 0 700.000000 700.000000"
 preserveAspectRatio="xMidYMid meet">

<g transform="translate(0.000000,700.000000) scale(0.100000,-0.100000)"
fill="#8c8c8c" stroke="none">
<path d="M2620 6575 c-747 -92 -1412 -517 -1824 -1165 -75 -117 -191 -362
-239 -505 -52 -152 -89 -304 -114 -465 -25 -161 -25 -547 0 -710 122 -788 573
-1440 1270 -1838 236 -135 555 -242 847 -287 151 -23 431 -30 586 -16 341 32
709 145 984 300 l73 42 666 -664 c428 -426 687 -677 726 -702 172 -112 365
-122 554 -29 100 49 222 170 274 270 95 184 91 373 -13 550 -26 44 -202 227
-697 724 -365 366 -663 669 -663 673 0 4 19 37 42 74 54 88 136 262 182 384
116 315 163 606 153 956 -11 386 -84 675 -257 1028 -378 769 -1129 1294 -1982
1385 -130 14 -438 11 -568 -5z m601 -784 c551 -95 1035 -466 1273 -976 221
-472 215 -1028 -15 -1486 -245 -491 -678 -825 -1215 -941 -96 -20 -135 -23
-339 -23 -204 0 -243 3 -339 23 -344 74 -636 232 -882 477 -455 454 -620 1114
-433 1730 121 396 394 745 759 971 91 57 268 136 380 172 254 81 539 99 811
53z"/>
</g>
</svg>
